<?xml version="1.0" standalone="no"?>
<!DOCTYPE svg PUBLIC "-//W3C//DTD SVG 20010904//EN"
 "http://www.w3.org/TR/2001/REC-SVG-20010904/DTD/svg10.dtd">
<svg version="1.0" xmlns="http://www.w3.org/2000/svg"
 width="1122.000000pt" height="1122.000000pt" viewBox="0 0 1122.000000 1122.000000"
 preserveAspectRatio="xMidYMid meet">
<metadata>
Created by potrace 1.11, written by Peter Selinger 2001-2013
</metadata>
<g transform="translate(0.000000,1122.000000) scale(0.100000,-0.100000)"
fill="#000000" stroke="none">
<path d="M1105 9206 c-187 -44 -351 -206 -400 -394 -17 -67 -21 -169 -9 -249
3 -26 71 -208 151 -403 79 -195 192 -472 250 -615 58 -143 111 -273 118 -290
16 -38 69 -168 195 -480 55 -137 114 -281 130 -320 16 -38 70 -170 120 -293
99 -245 99 -244 153 -319 107 -151 318 -224 534 -187 111 19 195 65 284 153
135 136 187 299 153 483 -11 56 -72 228 -119 333 -8 17 -48 116 -90 220 -42
105 -101 249 -130 320 -29 72 -110 272 -180 445 -70 173 -133 329 -140 345
-15 35 -167 409 -290 714 -102 254 -105 259 -162 336 -109 144 -253 213 -440
213 -43 0 -100 -6 -128 -12z"/>
<path d="M5550 9204 c-131 -28 -243 -106 -320 -225 -20 -31 -62 -121 -94 -200
-32 -79 -64 -158 -72 -176 -8 -17 -14 -34 -14 -38 0 -4 -6 -21 -14 -38 -19
-42 -46 -107 -150 -367 -48 -118 -91 -224 -96 -235 -4 -11 -26 -65 -48 -120
-84 -209 -193 -481 -202 -500 -8 -18 -115 -282 -316 -785 -41 -102 -79 -194
-84 -205 -5 -11 -41 -101 -81 -200 -39 -99 -77 -193 -84 -210 -8 -16 -32 -77
-55 -135 -23 -58 -76 -188 -117 -290 -42 -102 -83 -205 -93 -230 -9 -25 -57
-142 -104 -260 -48 -118 -133 -327 -188 -465 -55 -137 -106 -263 -114 -280 -8
-16 -41 -100 -74 -185 -34 -85 -67 -168 -75 -185 -38 -80 -208 -517 -222 -568
-41 -162 -13 -316 84 -454 110 -157 274 -235 479 -227 150 5 248 47 352 150
60 60 80 88 118 171 67 143 74 160 74 172 0 6 4 19 10 29 5 9 26 58 45 107 20
50 40 99 45 110 5 11 80 196 166 410 86 215 193 482 239 595 46 113 115 286
155 385 39 99 80 199 91 222 10 24 19 47 19 51 0 5 6 22 14 38 8 16 60 144
116 284 56 140 108 269 116 285 7 17 41 100 74 185 34 85 68 169 75 185 7 17
26 64 43 105 46 117 133 333 142 355 5 11 21 49 35 85 14 36 30 74 35 85 5 11
32 79 60 150 28 72 57 144 65 160 7 17 32 77 55 135 23 57 44 108 47 113 2 4
47 -97 99 -225 52 -128 98 -242 103 -253 5 -11 23 -54 39 -95 237 -593 289
-714 331 -770 98 -132 250 -203 430 -202 89 1 96 2 171 22 133 35 281 165 340
298 44 100 58 239 34 341 -12 52 -106 299 -155 408 -10 23 -19 47 -19 53 0 5
-5 18 -10 28 -13 21 -120 282 -125 302 -2 8 -12 35 -23 60 -11 25 -63 153
-117 285 -96 238 -106 264 -125 308 -29 69 -170 419 -170 423 0 2 -9 23 -19
47 -10 23 -32 76 -49 117 -246 613 -255 631 -351 728 -126 128 -319 178 -521
136z"/>
<path d="M9996 9204 c-95 -23 -165 -63 -237 -134 -53 -52 -76 -85 -114 -165
-26 -55 -51 -109 -55 -120 -4 -11 -22 -56 -40 -100 -66 -168 -212 -531 -225
-560 -7 -16 -32 -77 -55 -135 -22 -58 -48 -119 -55 -137 -8 -17 -15 -34 -15
-38 0 -4 -6 -21 -14 -38 -8 -18 -29 -68 -46 -112 -18 -44 -36 -89 -40 -100
-11 -25 -30 -71 -185 -455 -70 -173 -161 -398 -202 -500 -42 -102 -83 -205
-93 -230 -30 -78 -161 -404 -176 -435 -7 -16 -26 -64 -42 -105 -42 -107 -201
-501 -212 -525 -5 -11 -23 -56 -40 -100 -17 -44 -35 -89 -40 -100 -5 -11 -34
-81 -64 -155 -29 -74 -101 -252 -159 -395 -58 -143 -157 -389 -220 -546 -123
-304 -162 -402 -177 -434 -26 -60 -100 -255 -109 -289 -18 -68 -8 -243 17
-311 57 -153 190 -284 342 -335 79 -26 219 -33 307 -14 139 29 267 122 341
247 19 31 92 201 163 379 71 178 133 332 138 343 5 11 78 191 161 400 83 209
155 389 160 400 5 11 75 184 156 385 80 201 152 379 159 395 7 17 20 50 30 75
9 25 23 59 30 75 8 17 66 161 130 320 63 160 120 299 125 310 5 11 28 67 50
125 23 58 48 119 55 135 7 17 41 100 75 185 34 85 68 169 75 185 7 17 28 66
45 110 17 44 37 94 45 110 7 17 32 77 55 135 23 58 48 119 55 135 7 17 20 50
30 75 10 25 23 59 31 75 7 17 38 93 69 170 119 293 191 470 310 760 67 165
126 314 130 330 5 17 9 32 10 35 32 116 17 277 -38 385 -71 141 -209 253 -362
292 -49 12 -223 10 -279 -3z"/>
</g>
</svg>
